The Clique (2008)

A young girl tries to fit in with a clique of popular middle school girls after moving into the guest house of one of their homes. 

IMDB  Link - http://www.imdb.com/title/tt1059905/?ref_=fn_al_tt_4

Wikipedia Link - http://en.wikipedia.org/wiki/The_Clique_%28film%29

General
Complete name:The Clique_ZenLover.mp4
Format: MPEG-4
Format profile: Base Media
Codec ID: isom
File size: 894 MiB
Duration: 1h 27mn
Overall bit rate: 1 433 Kbps
Movie name: THE_CLIQUE
Genre: Comedy
Writing application: Lavf54.46.100

Video
ID: 1
Format: MPEG-4 Visual
Format settings, BVOP: No
Format settings, QPel: No
Format settings, GMC: No warppoints
Format settings, Matrix: Default (H.263)
Codec ID: 20
Duration: 1h 27mn
Bit rate mode: Constant
Bit rate: 1 299 Kbps
Width: 720 pixels
Height: 404 pixels
Display aspect ratio: 16:9
Frame rate mode: Constant
Frame rate: 29.970 fps
Color space: YUV
Chroma sub-sample: 4:2:0
Bit depth: 8 bits
Scan type: Progressive
Compression mode: Lossy
Bits/(Pixel*Frame): 0.149
Stream size: 810 MiB (91%)
Writing library: Lavc54.79.100

Audio
ID :2
Format: AAC
Format/Info: Advanced Audio Codec
Format profile: LC
Codec ID: 40
Duration: 1h 27mn
Bit rate mode: Constant
Bit rate :128 Kbps
Channel(s): 2 channels
Channel positions: Front: L R
Sampling rate: 44.1 KHz
Compression mode: Lossy
Stream size: 79.7 MiB (9%)

Please seed as long as possible, Thank you. Comments most welcome in order to improve future torrents.

Regards
Hover_man